<?xml version="1.0" encoding="utf-8"?>
<!-- Generator: Adobe Illustrator 18.1.1, SVG Export Plug-In . SVG Version: 6.00 Build 0)  -->
<svg version="1.1" id="Layer_1" xmlns="http://www.w3.org/2000/svg" xmlns:xlink="http://www.w3.org/1999/xlink" x="0px" y="0px"
	 viewBox="-281 404.9 32 32" enable-background="new -281 404.9 32 32" xml:space="preserve">
<g>
	<rect x="-281" y="404.9" fill="none" width="32" height="32"/>
	<g>
		<g>
			<g>
				<defs>
					<path id="SVGID_1_" d="M-268.5,406.4c0,0-0.5,0-0.9,0.4l-4.3,4.3c0,0-0.4,0.4-0.4,0.9v17c0,0,0,0.5,0.5,0.5h17
						c0,0,0.5,0,0.5-0.5v-22c0,0,0-0.5-0.5-0.5H-268.5z"/>
				</defs>
				<clipPath id="SVGID_2_">
					<use xlink:href="#SVGID_1_"  overflow="visible"/>
				</clipPath>
				
					<linearGradient id="SVGID_3_" gradientUnits="userSpaceOnUse" x1="-926.9969" y1="1117.6333" x2="-925.9969" y2="1117.6333" gradientTransform="matrix(18 0 0 -18 16411.9453 20535.291)">
					<stop  offset="0" style="stop-color:#4C6486"/>
					<stop  offset="1.980000e-02" style="stop-color:#4C6486"/>
					<stop  offset="1" style="stop-color:#5A77A0"/>
				</linearGradient>
				<rect x="-274" y="406.4" clip-path="url(#SVGID_2_)" fill="url(#SVGID_3_)" width="18" height="23"/>
			</g>
		</g>
	</g>
	<polygon fill="#FFFFFF" points="-258,427.4 -258,408.4 -267,408.4 -267,413.4 -272,413.4 -272,427.4 -268,427.4 -268,429.4 
		-262,429.4 -262,427.4 	"/>
	<g>
		<g>
			<g>
				<defs>
					<polygon id="SVGID_4_" points="-270.6,430.7 -265,435.6 -259.4,430.7 -263.1,430.7 -263.1,424.7 -266.9,424.7 -266.9,430.7 
											"/>
				</defs>
				<use xlink:href="#SVGID_4_"  overflow="visible" fill="#FF4800"/>
				<clipPath id="SVGID_5_">
					<use xlink:href="#SVGID_4_"  overflow="visible"/>
				</clipPath>
				<rect x="-270.6" y="424.7" clip-path="url(#SVGID_5_)" fill="#FF4800" width="11.2" height="10.9"/>
			</g>
		</g>
	</g>
</g>
</svg>
